<?xml version="1.0" encoding="UTF-8"?>
<!DOCTYPE svg PUBLIC "-//W3C//DTD SVG 1.1//EN" "http://www.w3.org/Graphics/SVG/1.1/DTD/svg11.dtd">
<svg xmlns="http://www.w3.org/2000/svg" version="1.1" width="328px" height="319px" style="shape-rendering:geometricPrecision; text-rendering:geometricPrecision; image-rendering:optimizeQuality; fill-rule:evenodd; clip-rule:evenodd" xmlns:xlink="http://www.w3.org/1999/xlink">
<g><path style="opacity:1" fill="#fbfcfa" d="M -0.5,-0.5 C 108.833,-0.5 218.167,-0.5 327.5,-0.5C 327.5,105.833 327.5,212.167 327.5,318.5C 218.167,318.5 108.833,318.5 -0.5,318.5C -0.5,212.167 -0.5,105.833 -0.5,-0.5 Z"/></g>
<g><path style="opacity:1" fill="#7aa483" d="M 187.5,27.5 C 169.877,26.3607 152.21,26.194 134.5,27C 132.846,27.6077 131.179,28.1077 129.5,28.5C 130.975,26.5905 132.975,25.4238 135.5,25C 151.5,24.3333 167.5,24.3333 183.5,25C 185.32,25.2004 186.653,26.0337 187.5,27.5 Z"/></g>
<g><path style="opacity:1" fill="#548b60" d="M 187.5,27.5 C 188.5,27.8333 189.167,28.5 189.5,29.5C 192.244,35.4295 193.244,41.7629 192.5,48.5C 208.5,48.5 224.5,48.5 240.5,48.5C 242.194,49.5274 243.527,50.8608 244.5,52.5C 244.5,53.5 244.5,54.5 244.5,55.5C 187.331,55.8323 130.331,55.499 73.5,54.5C 73.5,54.1667 73.5,53.8333 73.5,53.5C 75.8927,52.6473 77.226,50.9806 77.5,48.5C 93.6754,48.8297 109.675,48.4964 125.5,47.5C 126.296,41.6496 126.963,35.6496 127.5,29.5C 128.167,29.1667 128.833,28.8333 129.5,28.5C 131.179,28.1077 132.846,27.6077 134.5,27C 152.21,26.194 169.877,26.3607 187.5,27.5 Z"/></g>
<g><path style="opacity:1" fill="#95b79c" d="M 178.5,36.5 C 165.5,35.1667 152.5,35.1667 139.5,36.5C 139.611,35.8826 139.944,35.3826 140.5,35C 152.833,34.3333 165.167,34.3333 177.5,35C 178.056,35.3826 178.389,35.8826 178.5,36.5 Z"/></g>
<g><path style="opacity:1" fill="#d9e6db" d="M 178.5,36.5 C 179.75,36.5774 180.583,37.244 181,38.5C 181.499,42.1516 181.665,45.8183 181.5,49.5C 166.657,49.8293 151.99,49.496 137.5,48.5C 137.5,48.1667 137.5,47.8333 137.5,47.5C 151.833,47.5 166.167,47.5 180.5,47.5C 180.893,44.0703 180.227,40.9036 178.5,38C 165.092,37.1865 151.758,37.3532 138.5,38.5C 138.5,38.1667 138.5,37.8333 138.5,37.5C 138.5,36.8333 138.833,36.5 139.5,36.5C 152.5,35.1667 165.5,35.1667 178.5,36.5 Z"/></g>
<g><path style="opacity:1" fill="#a7c3ac" d="M 189.5,29.5 C 191.093,30.3479 192.26,31.6813 193,33.5C 193.499,38.1548 193.666,42.8215 193.5,47.5C 209.342,47.1704 225.009,47.5037 240.5,48.5C 224.5,48.5 208.5,48.5 192.5,48.5C 193.244,41.7629 192.244,35.4295 189.5,29.5 Z"/></g>
<g><path style="opacity:1" fill="#98b99f" d="M 127.5,29.5 C 126.963,35.6496 126.296,41.6496 125.5,47.5C 125.334,42.1563 125.501,36.8229 126,31.5C 126.278,30.5842 126.778,29.9175 127.5,29.5 Z"/></g>
<g><path style="opacity:1" fill="#fbfcfa" d="M 137.5,47.5 C 137.19,44.2869 137.523,41.2869 138.5,38.5C 151.758,37.3532 165.092,37.1865 178.5,38C 180.227,40.9036 180.893,44.0703 180.5,47.5C 166.167,47.5 151.833,47.5 137.5,47.5 Z"/></g>
<g><path style="opacity:1" fill="#a5c2ab" d="M 138.5,37.5 C 138.5,37.8333 138.5,38.1667 138.5,38.5C 137.523,41.2869 137.19,44.2869 137.5,47.5C 137.5,47.8333 137.5,48.1667 137.5,48.5C 136.839,46.866 136.506,45.0326 136.5,43C 136.547,40.7047 137.213,38.8714 138.5,37.5 Z"/></g>
<g><path style="opacity:1" fill="#88ae90" d="M 125.5,47.5 C 109.675,48.4964 93.6754,48.8297 77.5,48.5C 77.226,50.9806 75.8927,52.6473 73.5,53.5C 73.84,51.321 74.84,49.4877 76.5,48C 92.8299,47.5001 109.163,47.3334 125.5,47.5 Z"/></g>
<g><path style="opacity:1" fill="#8ab092" d="M 244.5,52.5 C 245.338,52.8417 245.672,53.5084 245.5,54.5C 217.008,55.8332 188.174,56.4998 159,56.5C 130.167,56.1667 101.333,55.8333 72.5,55.5C 72.6236,54.8933 72.9569,54.56 73.5,54.5C 130.331,55.499 187.331,55.8323 244.5,55.5C 244.5,54.5 244.5,53.5 244.5,52.5 Z"/></g>
<g><path style="opacity:1" fill="#bfd4c3" d="M 73.5,53.5 C 73.5,53.8333 73.5,54.1667 73.5,54.5C 72.9569,54.56 72.6236,54.8933 72.5,55.5C 101.333,55.8333 130.167,56.1667 159,56.5C 188.174,56.4998 217.008,55.8332 245.5,54.5C 246.404,55.209 246.737,56.209 246.5,57.5C 188.167,57.5 129.833,57.5 71.5,57.5C 71.1568,55.5168 71.8235,54.1834 73.5,53.5 Z"/></g>
<g><path style="opacity:1" fill="#b7cebb" d="M 251.5,62.5 C 189.664,62.1676 127.998,62.5009 66.5,63.5C 65.9569,63.44 65.6236,63.1067 65.5,62.5C 127.665,61.1684 189.665,61.1684 251.5,62.5 Z"/></g>
<g><path style="opacity:1" fill="#699972" d="M 66.5,63.5 C 127.998,62.5009 189.664,62.1676 251.5,62.5C 251.167,63.5 250.5,64.1667 249.5,64.5C 189.665,63.1685 129.665,63.1685 69.5,64.5C 71.6363,65.9688 72.9697,67.9688 73.5,70.5C 70.8061,68.4728 68.4728,66.1395 66.5,63.5 Z"/></g>
<g><path style="opacity:1" fill="#538a5f" d="M 249.5,64.5 C 247.5,67.1667 245.167,69.5 242.5,71.5C 239.167,71.5 235.833,71.5 232.5,71.5C 232.5,75.5 232.5,79.5 232.5,83.5C 237.167,83.5 241.833,83.5 246.5,83.5C 246.5,92.1667 246.5,100.833 246.5,109.5C 188.5,109.5 130.5,109.5 72.5,109.5C 72.5,100.833 72.5,92.1667 72.5,83.5C 77.1667,83.5 81.8333,83.5 86.5,83.5C 87.0894,79.0293 86.4228,75.0293 84.5,71.5C 80.7657,71.6773 77.0991,71.3439 73.5,70.5C 72.9697,67.9688 71.6363,65.9688 69.5,64.5C 129.665,63.1685 189.665,63.1685 249.5,64.5 Z"/></g>
<g><path style="opacity:1" fill="#c9dbcc" d="M 251.5,62.5 C 252.525,62.8966 252.692,63.5632 252,64.5C 249.234,67.7768 246.067,70.4434 242.5,72.5C 242.5,72.1667 242.5,71.8333 242.5,71.5C 245.167,69.5 247.5,67.1667 249.5,64.5C 250.5,64.1667 251.167,63.5 251.5,62.5 Z"/></g>
<g><path style="opacity:1" fill="#97b99f" d="M 73.5,70.5 C 77.0991,71.3439 80.7657,71.6773 84.5,71.5C 84.5,71.8333 84.5,72.1667 84.5,72.5C 81.1501,72.665 77.8168,72.4983 74.5,72C 73.944,71.6174 73.6107,71.1174 73.5,70.5 Z"/></g>
<g><path style="opacity:1" fill="#97b99e" d="M 242.5,71.5 C 242.5,71.8333 242.5,72.1667 242.5,72.5C 239.5,72.5 236.5,72.5 233.5,72.5C 233.187,76.0419 233.521,79.3752 234.5,82.5C 238.5,82.5 242.5,82.5 246.5,82.5C 246.5,82.8333 246.5,83.1667 246.5,83.5C 241.833,83.5 237.167,83.5 232.5,83.5C 232.5,79.5 232.5,75.5 232.5,71.5C 235.833,71.5 239.167,71.5 242.5,71.5 Z"/></g>
<g><path style="opacity:1" fill="#ccddd0" d="M 242.5,72.5 C 240.052,73.4731 237.385,73.8064 234.5,73.5C 234.5,76.5 234.5,79.5 234.5,82.5C 233.521,79.3752 233.187,76.0419 233.5,72.5C 236.5,72.5 239.5,72.5 242.5,72.5 Z"/></g>
<g><path style="opacity:1" fill="#8ab092" d="M 84.5,71.5 C 86.4228,75.0293 87.0894,79.0293 86.5,83.5C 81.8333,83.5 77.1667,83.5 72.5,83.5C 72.5,92.1667 72.5,100.833 72.5,109.5C 130.5,109.5 188.5,109.5 246.5,109.5C 188.336,110.499 130.002,110.832 71.5,110.5C 70.3631,101.578 70.1965,92.5779 71,83.5C 75.4014,82.5333 79.9014,82.2 84.5,82.5C 84.5,79.1667 84.5,75.8333 84.5,72.5C 84.5,72.1667 84.5,71.8333 84.5,71.5 Z"/></g>
<g><path style="opacity:1" fill="#bbd2c0" d="M 246.5,82.5 C 247.494,91.9856 247.827,101.652 247.5,111.5C 188.664,111.832 129.998,111.499 71.5,110.5C 130.002,110.832 188.336,110.499 246.5,109.5C 246.5,100.833 246.5,92.1667 246.5,83.5C 246.5,83.1667 246.5,82.8333 246.5,82.5 Z"/></g>
<g><path style="opacity:1" fill="#bedaa7" d="M 81.5,115.5 C 81.5,115.167 81.5,114.833 81.5,114.5C 133.5,114.5 185.5,114.5 237.5,114.5C 237.1,120.829 236.767,127.162 236.5,133.5C 236.167,133.5 235.833,133.5 235.5,133.5C 235.5,127.5 235.5,121.5 235.5,115.5C 184.167,115.5 132.833,115.5 81.5,115.5 Z"/></g>
<g><path style="opacity:1" fill="#71ae3f" d="M 81.5,115.5 C 132.833,115.5 184.167,115.5 235.5,115.5C 235.5,121.5 235.5,127.5 235.5,133.5C 235.167,144.833 234.833,156.167 234.5,167.5C 234.5,169.833 234.5,172.167 234.5,174.5C 233.304,180.97 232.638,187.637 232.5,194.5C 232.5,199.5 232.5,204.5 232.5,209.5C 231.043,214.598 230.376,219.931 230.5,225.5C 228.77,226.026 227.436,227.026 226.5,228.5C 224.833,229.167 223.167,229.833 221.5,230.5C 219.326,230.75 217.659,231.75 216.5,233.5C 214.102,233.259 212.102,233.926 210.5,235.5C 209.167,235.833 207.833,236.167 206.5,236.5C 204.102,236.259 202.102,236.926 200.5,238.5C 199.833,238.5 199.167,238.5 198.5,238.5C 194.881,239.18 191.214,239.68 187.5,240C 186.944,240.383 186.611,240.883 186.5,241.5C 182.466,241.505 178.466,241.838 174.5,242.5C 170.988,243.055 167.988,242.388 165.5,240.5C 165.5,239.833 165.5,239.167 165.5,238.5C 168.767,234.722 171.101,230.389 172.5,225.5C 173.167,225.5 173.5,225.167 173.5,224.5C 175.89,223.109 177.557,221.109 178.5,218.5C 180.408,217.514 181.408,215.848 181.5,213.5C 183.408,212.514 184.408,210.848 184.5,208.5C 185.471,206.517 186.471,204.517 187.5,202.5C 188.401,201.71 189.068,200.71 189.5,199.5C 190.655,196.543 191.655,193.543 192.5,190.5C 194.118,187.829 194.785,184.829 194.5,181.5C 195.222,181.082 195.722,180.416 196,179.5C 196.818,173.651 196.652,167.985 195.5,162.5C 194.566,161.432 194.232,160.099 194.5,158.5C 194.245,156.033 193.245,154.033 191.5,152.5C 191.545,149.923 190.545,147.923 188.5,146.5C 187.532,143.9 186.199,141.566 184.5,139.5C 182.727,136.94 180.727,134.607 178.5,132.5C 178.144,130.81 177.144,129.81 175.5,129.5C 175.167,128.5 174.5,127.833 173.5,127.5C 173.189,126.522 172.522,125.855 171.5,125.5C 170.507,130.12 170.173,134.786 170.5,139.5C 170.5,140.833 170.5,142.167 170.5,143.5C 168.903,145.848 167.903,148.514 167.5,151.5C 167.5,151.833 167.5,152.167 167.5,152.5C 166.094,152.973 165.427,153.973 165.5,155.5C 165.5,155.833 165.5,156.167 165.5,156.5C 163.952,156.821 163.285,157.821 163.5,159.5C 162.833,159.5 162.5,159.833 162.5,160.5C 160.453,162.55 158.786,164.883 157.5,167.5C 157.5,168.167 157.167,168.5 156.5,168.5C 152.167,172.833 147.833,177.167 143.5,181.5C 142.167,182.167 141.167,183.167 140.5,184.5C 138.833,186.167 137.167,187.833 135.5,189.5C 135.5,189.833 135.5,190.167 135.5,190.5C 132.083,192.592 129.75,195.592 128.5,199.5C 125.002,204.984 122.669,210.984 121.5,217.5C 121.5,217.833 121.5,218.167 121.5,218.5C 120.833,218.5 120.5,218.833 120.5,219.5C 119.509,225.979 119.176,232.646 119.5,239.5C 117.833,239.5 116.167,239.5 114.5,239.5C 114.389,238.883 114.056,238.383 113.5,238C 110.854,237.503 108.187,237.336 105.5,237.5C 104.07,236.463 102.403,235.796 100.5,235.5C 100.167,235.5 99.8333,235.5 99.5,235.5C 97.8984,233.926 95.8984,233.259 93.5,233.5C 92.609,232.89 91.609,232.557 90.5,232.5C 90.0269,231.094 89.0269,230.427 87.5,230.5C 87.1667,230.5 86.8333,230.5 86.5,230.5C 86.5,224.167 86.5,217.833 86.5,211.5C 86.6662,205.158 86.4995,198.825 86,192.5C 85.6174,191.944 85.1174,191.611 84.5,191.5C 84.5,188.167 84.5,184.833 84.5,181.5C 84.3767,170.825 84.0434,160.159 83.5,149.5C 83.9052,139.607 83.2385,129.941 81.5,120.5C 81.5,118.833 81.5,117.167 81.5,115.5 Z"/></g>
<g><path style="opacity:1" fill="#bddaa7" d="M 173.5,127.5 C 172.677,130.977 172.177,134.644 172,138.5C 171.617,139.056 171.117,139.389 170.5,139.5C 170.173,134.786 170.507,130.12 171.5,125.5C 172.522,125.855 173.189,126.522 173.5,127.5 Z"/></g>
<g><path style="opacity:1" fill="#cae1b8" d="M 175.5,129.5 C 177.144,129.81 178.144,130.81 178.5,132.5C 176.856,132.19 175.856,131.19 175.5,129.5 Z"/></g>
<g><path style="opacity:1" fill="#d8e9cb" d="M 184.5,139.5 C 186.199,141.566 187.532,143.9 188.5,146.5C 186.058,144.879 184.725,142.546 184.5,139.5 Z"/></g>
<g><path style="opacity:1" fill="#eaf3e3" d="M 81.5,114.5 C 81.5,114.833 81.5,115.167 81.5,115.5C 81.5,117.167 81.5,118.833 81.5,120.5C 81.6378,130.175 81.9711,139.842 82.5,149.5C 82.5,150.167 82.5,150.833 82.5,151.5C 81.8826,151.389 81.3826,151.056 81,150.5C 80.1737,138.326 80.3403,126.326 81.5,114.5 Z"/></g>
<g><path style="opacity:1" fill="#a5cc86" d="M 81.5,120.5 C 83.2385,129.941 83.9052,139.607 83.5,149.5C 83.1667,149.5 82.8333,149.5 82.5,149.5C 81.9711,139.842 81.6378,130.175 81.5,120.5 Z"/></g>
<g><path style="opacity:1" fill="#c8dfb4" d="M 170.5,143.5 C 170.693,146.811 169.693,149.478 167.5,151.5C 167.903,148.514 168.903,145.848 170.5,143.5 Z"/></g>
<g><path style="opacity:1" fill="#d3e6c4" d="M 235.5,133.5 C 235.833,133.5 236.167,133.5 236.5,133.5C 236.746,145.039 236.079,156.372 234.5,167.5C 234.833,156.167 235.167,144.833 235.5,133.5 Z"/></g>
<g><path style="opacity:1" fill="#bcd9a5" d="M 167.5,152.5 C 167.573,154.027 166.906,155.027 165.5,155.5C 165.427,153.973 166.094,152.973 167.5,152.5 Z"/></g>
<g><path style="opacity:1" fill="#a7cd88" d="M 191.5,152.5 C 193.245,154.033 194.245,156.033 194.5,158.5C 193.833,158.167 193.167,157.833 192.5,157.5C 192.371,155.784 192.038,154.117 191.5,152.5 Z"/></g>
<g><path style="opacity:1" fill="#abcf8f" d="M 165.5,156.5 C 165.068,157.71 164.401,158.71 163.5,159.5C 163.285,157.821 163.952,156.821 165.5,156.5 Z"/></g>
<g><path style="opacity:1" fill="#71ae40" d="M 74.5,157.5 C 74.8222,163.358 74.4889,169.025 73.5,174.5C 70.2809,175.069 67.9475,176.736 66.5,179.5C 63.883,180.786 61.5496,182.453 59.5,184.5C 57.5,185.833 55.8333,187.5 54.5,189.5C 52.7499,191.059 51.7499,193.059 51.5,195.5C 50.1001,196.1 49.1001,197.1 48.5,198.5C 47.3547,202.311 47.1881,206.311 48,210.5C 48.4169,211.756 49.2502,212.423 50.5,212.5C 54.1549,217.821 58.4882,222.487 63.5,226.5C 64.8993,227.89 66.5659,228.89 68.5,229.5C 70.3356,231.588 72.6689,232.921 75.5,233.5C 77.1914,235.012 79.1914,236.012 81.5,236.5C 84.5563,238.356 87.8897,239.689 91.5,240.5C 91.8333,240.5 92.1667,240.5 92.5,240.5C 94.3949,242.241 96.7282,243.241 99.5,243.5C 102.206,243.575 104.873,243.908 107.5,244.5C 109.515,245.924 111.848,246.59 114.5,246.5C 115.167,246.5 115.833,246.5 116.5,246.5C 120.029,248.423 124.029,249.089 128.5,248.5C 129.263,249.268 130.263,249.768 131.5,250C 136.489,250.499 141.489,250.666 146.5,250.5C 146.229,252.38 146.896,253.713 148.5,254.5C 148.5,255.167 148.5,255.833 148.5,256.5C 148.912,258.887 149.912,260.887 151.5,262.5C 153.097,266.992 155.43,270.992 158.5,274.5C 159.748,276.649 161.248,278.649 163,280.5C 162.731,276.874 162.231,273.207 161.5,269.5C 161.207,262.745 161.54,256.078 162.5,249.5C 163.5,249.5 164.5,249.5 165.5,249.5C 172.7,249.422 179.7,248.755 186.5,247.5C 187.833,247.5 189.167,247.5 190.5,247.5C 193.572,247.817 196.572,247.484 199.5,246.5C 202.295,246.062 204.628,245.062 206.5,243.5C 207.167,243.5 207.833,243.5 208.5,243.5C 213.781,243.68 218.114,242.013 221.5,238.5C 221.833,238.5 222.167,238.5 222.5,238.5C 224.403,238.204 226.07,237.537 227.5,236.5C 228.391,235.89 229.391,235.557 230.5,235.5C 232.027,235.573 233.027,234.906 233.5,233.5C 234.609,233.443 235.609,233.11 236.5,232.5C 238.404,232.262 239.738,231.262 240.5,229.5C 242.933,229.727 244.599,228.727 245.5,226.5C 247.795,225.864 249.461,224.531 250.5,222.5C 251.167,221.167 252.167,220.167 253.5,219.5C 255.86,218.135 257.527,216.135 258.5,213.5C 258.796,211.597 259.463,209.93 260.5,208.5C 261.16,207.036 261.493,205.369 261.5,203.5C 261.684,200.795 261.017,198.462 259.5,196.5C 258.189,193.865 256.522,191.531 254.5,189.5C 253.167,187.833 251.833,186.167 250.5,184.5C 250.027,183.094 249.027,182.427 247.5,182.5C 246.167,181.833 245.167,180.833 244.5,179.5C 243.883,173.402 244.55,167.735 246.5,162.5C 247.167,162.833 247.833,163.167 248.5,163.5C 248.973,164.906 249.973,165.573 251.5,165.5C 251.973,166.906 252.973,167.573 254.5,167.5C 254.842,168.338 255.508,168.672 256.5,168.5C 258.219,171.219 260.553,173.219 263.5,174.5C 263.5,174.833 263.5,175.167 263.5,175.5C 264.08,177.749 265.413,179.415 267.5,180.5C 268.167,180.5 268.5,180.833 268.5,181.5C 268.738,183.404 269.738,184.738 271.5,185.5C 271.62,188.578 272.62,191.245 274.5,193.5C 274.698,201.534 274.365,209.534 273.5,217.5C 272.068,219.327 270.401,220.994 268.5,222.5C 267.754,223.736 267.421,225.07 267.5,226.5C 266.4,227.605 265.733,228.938 265.5,230.5C 263.81,230.856 262.81,231.856 262.5,233.5C 260.973,233.427 259.973,234.094 259.5,235.5C 257.81,235.856 256.81,236.856 256.5,238.5C 254.973,238.427 253.973,239.094 253.5,240.5C 250.098,242.528 246.765,244.528 243.5,246.5C 241.033,246.755 239.033,247.755 237.5,249.5C 237.167,249.5 236.833,249.5 236.5,249.5C 235.391,249.557 234.391,249.89 233.5,250.5C 231.833,250.5 230.167,250.5 228.5,250.5C 228.5,258.833 228.5,267.167 228.5,275.5C 228.495,279.534 228.162,283.534 227.5,287.5C 225.738,288.262 224.738,289.596 224.5,291.5C 222.973,291.427 221.973,292.094 221.5,293.5C 220.791,294.404 219.791,294.737 218.5,294.5C 178.5,294.5 138.5,294.5 98.5,294.5C 93.5477,291.915 90.5477,287.915 89.5,282.5C 89.6664,274.493 89.4997,266.493 89,258.5C 88.7216,257.584 88.2216,256.918 87.5,256.5C 86.3646,254.787 84.698,254.12 82.5,254.5C 81.0975,253.069 79.4308,251.902 77.5,251C 76.2068,250.51 74.8734,250.343 73.5,250.5C 73.1583,249.662 72.4916,249.328 71.5,249.5C 69.5659,246.942 66.8992,245.609 63.5,245.5C 63.0269,244.094 62.0269,243.427 60.5,243.5C 60.0269,242.094 59.0269,241.427 57.5,241.5C 56.1667,240.5 54.8333,239.5 53.5,238.5C 52.4154,236.413 50.7488,235.08 48.5,234.5C 42.6277,229.625 38.2943,223.625 35.5,216.5C 34.6423,208.868 34.3089,201.201 34.5,193.5C 35.3627,191.579 36.0293,189.579 36.5,187.5C 40.765,181.896 45.4317,176.563 50.5,171.5C 54.663,168.722 58.9963,166.222 63.5,164C 64.7101,162.961 65.7101,161.794 66.5,160.5C 68.9278,158.957 71.5944,157.957 74.5,157.5 Z"/></g>
<g><path style="opacity:1" fill="#97c473" d="M 66.5,160.5 C 65.7101,161.794 64.7101,162.961 63.5,164C 58.9963,166.222 54.663,168.722 50.5,171.5C 51.4749,169.807 52.8082,168.307 54.5,167C 58.4801,164.734 62.4801,162.568 66.5,160.5 Z"/></g>
<g><path style="opacity:1" fill="#c3ddaf" d="M 248.5,163.5 C 250.027,163.427 251.027,164.094 251.5,165.5C 249.973,165.573 248.973,164.906 248.5,163.5 Z"/></g>
<g><path style="opacity:1" fill="#bedaa9" d="M 82.5,149.5 C 82.8333,149.5 83.1667,149.5 83.5,149.5C 84.0434,160.159 84.3767,170.825 84.5,181.5C 83.8333,176.833 83.1667,172.167 82.5,167.5C 82.5,162.167 82.5,156.833 82.5,151.5C 82.5,150.833 82.5,150.167 82.5,149.5 Z"/></g>
<g><path style="opacity:1" fill="#b1d296" d="M 162.5,160.5 C 161.99,163.674 160.323,166.008 157.5,167.5C 158.786,164.883 160.453,162.55 162.5,160.5 Z"/></g>
<g><path style="opacity:1" fill="#c1dcad" d="M 251.5,165.5 C 253.027,165.427 254.027,166.094 254.5,167.5C 252.973,167.573 251.973,166.906 251.5,165.5 Z"/></g>
<g><path style="opacity:1" fill="#dbeacf" d="M 256.5,168.5 C 259.473,169.81 261.807,171.81 263.5,174.5C 260.553,173.219 258.219,171.219 256.5,168.5 Z"/></g>
<g><path style="opacity:1" fill="#c7e0b5" d="M 192.5,157.5 C 193.167,157.833 193.833,158.167 194.5,158.5C 194.232,160.099 194.566,161.432 195.5,162.5C 195.821,167.695 195.487,172.695 194.5,177.5C 194.799,170.713 194.132,164.046 192.5,157.5 Z"/></g>
<g><path style="opacity:1" fill="#d3e6c5" d="M 74.5,157.5 C 75.1647,160.314 75.498,163.314 75.5,166.5C 75.483,169.913 74.8164,172.913 73.5,175.5C 73.5,175.167 73.5,174.833 73.5,174.5C 74.4889,169.025 74.8222,163.358 74.5,157.5 Z"/></g>
<g><path style="opacity:1" fill="#99c576" d="M 195.5,162.5 C 196.652,167.985 196.818,173.651 196,179.5C 195.722,180.416 195.222,181.082 194.5,181.5C 194.5,180.5 194.5,179.5 194.5,178.5C 194.5,178.167 194.5,177.833 194.5,177.5C 195.487,172.695 195.821,167.695 195.5,162.5 Z"/></g>
<g><path style="opacity:1" fill="#d1e4c1" d="M 156.5,168.5 C 155.987,170.854 154.821,172.854 153,174.5C 149.914,177.107 146.747,179.441 143.5,181.5C 147.833,177.167 152.167,172.833 156.5,168.5 Z"/></g>
<g><path style="opacity:1" fill="#9fc97f" d="M 246.5,162.5 C 244.55,167.735 243.883,173.402 244.5,179.5C 243.51,173.69 243.177,167.69 243.5,161.5C 244.791,161.263 245.791,161.596 246.5,162.5 Z"/></g>
<g><path style="opacity:1" fill="#a9cf8d" d="M 50.5,171.5 C 45.4317,176.563 40.765,181.896 36.5,187.5C 39.3905,180.61 44.0572,175.276 50.5,171.5 Z"/></g>
<g><path style="opacity:1" fill="#a1ca81" d="M 263.5,175.5 C 265.587,176.585 266.92,178.251 267.5,180.5C 265.413,179.415 264.08,177.749 263.5,175.5 Z"/></g>
<g><path style="opacity:1" fill="#a9ce8c" d="M 73.5,174.5 C 73.5,174.833 73.5,175.167 73.5,175.5C 71.1667,176.833 68.8333,178.167 66.5,179.5C 67.9475,176.736 70.2809,175.069 73.5,174.5 Z"/></g>
<g><path style="opacity:1" fill="#cee3be" d="M 194.5,178.5 C 194.5,179.5 194.5,180.5 194.5,181.5C 194.785,184.829 194.118,187.829 192.5,190.5C 192.539,186.267 193.205,182.267 194.5,178.5 Z"/></g>
<g><path style="opacity:1" fill="#a7cd8a" d="M 247.5,182.5 C 249.027,182.427 250.027,183.094 250.5,184.5C 248.973,184.573 247.973,183.906 247.5,182.5 Z"/></g>
<g><path style="opacity:1" fill="#a5cc86" d="M 268.5,181.5 C 270.262,182.262 271.262,183.596 271.5,185.5C 269.738,184.738 268.738,183.404 268.5,181.5 Z"/></g>
<g><path style="opacity:1" fill="#e0edd6" d="M 82.5,167.5 C 83.1667,172.167 83.8333,176.833 84.5,181.5C 84.5,184.833 84.5,188.167 84.5,191.5C 84.7354,198.354 85.4021,205.021 86.5,211.5C 86.5,217.833 86.5,224.167 86.5,230.5C 83.8614,209.742 82.528,188.742 82.5,167.5 Z"/></g>
<g><path style="opacity:1" fill="#d9e9cb" d="M 140.5,184.5 C 140.167,187.5 138.5,189.167 135.5,189.5C 137.167,187.833 138.833,186.167 140.5,184.5 Z"/></g>
<g><path style="opacity:1" fill="#d9e9cb" d="M 59.5,184.5 C 59.1667,187.5 57.5,189.167 54.5,189.5C 55.8333,187.5 57.5,185.833 59.5,184.5 Z"/></g>
<g><path style="opacity:1" fill="#c6dfb3" d="M 36.5,187.5 C 36.0293,189.579 35.3627,191.579 34.5,193.5C 34.1667,193.5 33.8333,193.5 33.5,193.5C 33.7549,191.033 34.7549,189.033 36.5,187.5 Z"/></g>
<g><path style="opacity:1" fill="#b2d499" d="M 234.5,174.5 C 234.756,181.224 234.423,187.891 233.5,194.5C 233.167,194.5 232.833,194.5 232.5,194.5C 232.638,187.637 233.304,180.97 234.5,174.5 Z"/></g>
<g><path style="opacity:1" fill="#9bc678" d="M 271.5,185.5 C 272.492,187.456 273.492,189.456 274.5,191.5C 274.5,192.167 274.5,192.833 274.5,193.5C 272.62,191.245 271.62,188.578 271.5,185.5 Z"/></g>
<g><path style="opacity:1" fill="#c2ddae" d="M 135.5,190.5 C 133.5,193.5 131.5,196.5 129.5,199.5C 129.167,199.5 128.833,199.5 128.5,199.5C 129.75,195.592 132.083,192.592 135.5,190.5 Z"/></g>
<g><path style="opacity:1" fill="#a8ce8b" d="M 160.5,202.5 C 160.5,201.167 159.833,200.5 158.5,200.5C 160.369,198.97 162.369,197.47 164.5,196C 165.635,195.251 166.635,195.417 167.5,196.5C 165.147,198.523 162.814,200.523 160.5,202.5 Z"/></g>
<g><path style="opacity:1" fill="#c5dfb2" d="M 189.5,199.5 C 189.068,200.71 188.401,201.71 187.5,202.5C 187.285,200.821 187.952,199.821 189.5,199.5 Z"/></g>
<g><path style="opacity:1" fill="#8bbd63" d="M 274.5,193.5 C 276.26,198.553 276.927,203.886 276.5,209.5C 275.749,212.246 274.749,214.913 273.5,217.5C 274.365,209.534 274.698,201.534 274.5,193.5 Z"/></g>
<g><path style="opacity:1" fill="#daeacd" d="M 51.5,195.5 C 50.6076,200.438 50.2743,205.438 50.5,210.5C 49.7784,210.082 49.2784,209.416 49,208.5C 48.5017,205.183 48.335,201.85 48.5,198.5C 49.1001,197.1 50.1001,196.1 51.5,195.5 Z"/></g>
<g><path style="opacity:1" fill="#e2efd9" d="M 254.5,189.5 C 256.522,191.531 258.189,193.865 259.5,196.5C 260.162,200.466 260.495,204.466 260.5,208.5C 259.463,209.93 258.796,211.597 258.5,213.5C 258.167,213.5 257.833,213.5 257.5,213.5C 259.545,205.029 258.545,197.029 254.5,189.5 Z"/></g>
<g><path style="opacity:1" fill="#a2ca82" d="M 259.5,196.5 C 261.017,198.462 261.684,200.795 261.5,203.5C 261.493,205.369 261.16,207.036 260.5,208.5C 260.495,204.466 260.162,200.466 259.5,196.5 Z"/></g>
<g><path style="opacity:1" fill="#acd08f" d="M 157.5,201.5 C 156.292,204.044 154.292,205.378 151.5,205.5C 153.223,203.782 155.223,202.449 157.5,201.5 Z"/></g>
<g><path style="opacity:1" fill="#d0e4c0" d="M 274.5,191.5 C 276.067,192.681 276.901,194.347 277,196.5C 277.814,201.02 277.647,205.354 276.5,209.5C 276.927,203.886 276.26,198.553 274.5,193.5C 274.5,192.833 274.5,192.167 274.5,191.5 Z"/></g>
<g><path style="opacity:1" fill="#e3efd9" d="M 128.5,199.5 C 128.833,199.5 129.167,199.5 129.5,199.5C 127.164,205.776 124.497,211.776 121.5,217.5C 122.669,210.984 125.002,204.984 128.5,199.5 Z"/></g>
<g><path style="opacity:1" fill="#82b856" d="M 158.5,200.5 C 159.833,200.5 160.5,201.167 160.5,202.5C 158.817,203.853 157.484,205.52 156.5,207.5C 155.094,207.973 154.427,208.973 154.5,210.5C 154.167,210.5 153.833,210.5 153.5,210.5C 153.657,209.127 153.49,207.793 153,206.5C 151.67,207.582 150.17,208.249 148.5,208.5C 149.306,207.272 150.306,206.272 151.5,205.5C 154.292,205.378 156.292,204.044 157.5,201.5C 157.5,200.833 157.833,200.5 158.5,200.5 Z"/></g>
<g><path style="opacity:1" fill="#72af40" d="M 153.5,210.5 C 152.559,212.05 151.893,213.716 151.5,215.5C 150.094,215.973 149.427,216.973 149.5,218.5C 149.5,218.833 149.5,219.167 149.5,219.5C 147.621,220.895 146.621,222.895 146.5,225.5C 146.768,227.099 146.434,228.432 145.5,229.5C 144.515,233.634 144.182,237.968 144.5,242.5C 141.833,242.5 139.167,242.5 136.5,242.5C 134.194,242.007 131.861,241.674 129.5,241.5C 129.5,239.833 129.5,238.167 129.5,236.5C 129.925,233.881 130.925,231.547 132.5,229.5C 134.245,227.967 135.245,225.967 135.5,223.5C 136.974,222.564 137.974,221.23 138.5,219.5C 139.906,219.027 140.573,218.027 140.5,216.5C 143.182,215.045 145.849,213.711 148.5,212.5C 148.5,211.167 148.5,209.833 148.5,208.5C 150.17,208.249 151.67,207.582 153,206.5C 153.49,207.793 153.657,209.127 153.5,210.5 Z"/></g>
<g><path style="opacity:1" fill="#c0dcac" d="M 156.5,207.5 C 156.573,209.027 155.906,210.027 154.5,210.5C 154.427,208.973 155.094,207.973 156.5,207.5 Z"/></g>
<g><path style="opacity:1" fill="#98c574" d="M 33.5,193.5 C 33.8333,193.5 34.1667,193.5 34.5,193.5C 34.3089,201.201 34.6423,208.868 35.5,216.5C 33.9891,214.524 33.1558,212.191 33,209.5C 32.3239,204.129 32.4905,198.796 33.5,193.5 Z"/></g>
<g><path style="opacity:1" fill="#88bc60" d="M 48.5,198.5 C 48.335,201.85 48.5017,205.183 49,208.5C 49.2784,209.416 49.7784,210.082 50.5,210.5C 50.5,211.167 50.5,211.833 50.5,212.5C 49.2502,212.423 48.4169,211.756 48,210.5C 47.1881,206.311 47.3547,202.311 48.5,198.5 Z"/></g>
<g><path style="opacity:1" fill="#9fc97f" d="M 84.5,191.5 C 85.1174,191.611 85.6174,191.944 86,192.5C 86.4995,198.825 86.6662,205.158 86.5,211.5C 85.4021,205.021 84.7354,198.354 84.5,191.5 Z"/></g>
<g><path style="opacity:1" fill="#89bc60" d="M 148.5,208.5 C 148.5,209.833 148.5,211.167 148.5,212.5C 145.849,213.711 143.182,215.045 140.5,216.5C 142.833,213.5 145.5,210.833 148.5,208.5 Z"/></g>
<g><path style="opacity:1" fill="#c3ddaf" d="M 153.5,210.5 C 153.833,210.5 154.167,210.5 154.5,210.5C 154.25,212.674 153.25,214.341 151.5,215.5C 151.893,213.716 152.559,212.05 153.5,210.5 Z"/></g>
<g><path style="opacity:1" fill="#a0c980" d="M 184.5,208.5 C 184.408,210.848 183.408,212.514 181.5,213.5C 181.75,211.326 182.75,209.659 184.5,208.5 Z"/></g>
<g><path style="opacity:1" fill="#a8cd8a" d="M 257.5,213.5 C 257.833,213.5 258.167,213.5 258.5,213.5C 257.527,216.135 255.86,218.135 253.5,219.5C 254.441,217.228 255.774,215.228 257.5,213.5 Z"/></g>
<g><path style="opacity:1" fill="#abcf8e" d="M 140.5,216.5 C 140.573,218.027 139.906,219.027 138.5,219.5C 138.427,217.973 139.094,216.973 140.5,216.5 Z"/></g>
<g><path style="opacity:1" fill="#b4d59b" d="M 151.5,215.5 C 151.573,217.027 150.906,218.027 149.5,218.5C 149.427,216.973 150.094,215.973 151.5,215.5 Z"/></g>
<g><path style="opacity:1" fill="#93c26e" d="M 181.5,213.5 C 181.408,215.848 180.408,217.514 178.5,218.5C 178.5,218.167 178.5,217.833 178.5,217.5C 179.026,215.77 180.026,214.436 181.5,213.5 Z"/></g>
<g><path style="opacity:1" fill="#92c16d" d="M 232.5,209.5 C 232.167,214.833 231.833,220.167 231.5,225.5C 231.167,225.5 230.833,225.5 230.5,225.5C 230.376,219.931 231.043,214.598 232.5,209.5 Z"/></g>
<g><path style="opacity:1" fill="#88bb5f" d="M 273.5,217.5 C 272.571,220.412 271.238,223.079 269.5,225.5C 268.833,225.833 268.167,226.167 267.5,226.5C 267.421,225.07 267.754,223.736 268.5,222.5C 270.401,220.994 272.068,219.327 273.5,217.5 Z"/></g>
<g><path style="opacity:1" fill="#aed192" d="M 138.5,219.5 C 137.974,221.23 136.974,222.564 135.5,223.5C 135.554,221.368 136.554,220.035 138.5,219.5 Z"/></g>
<g><path style="opacity:1" fill="#b7d69e" d="M 178.5,217.5 C 178.5,217.833 178.5,218.167 178.5,218.5C 177.557,221.109 175.89,223.109 173.5,224.5C 174.786,221.883 176.453,219.55 178.5,217.5 Z"/></g>
<g><path style="opacity:1" fill="#c6dfb3" d="M 232.5,194.5 C 232.833,194.5 233.167,194.5 233.5,194.5C 234.142,205.221 233.475,215.554 231.5,225.5C 231.833,220.167 232.167,214.833 232.5,209.5C 232.5,204.5 232.5,199.5 232.5,194.5 Z"/></g>
<g><path style="opacity:1" fill="#9fc87f" d="M 149.5,219.5 C 148.833,221.5 148.167,223.5 147.5,225.5C 147.167,225.5 146.833,225.5 146.5,225.5C 146.621,222.895 147.621,220.895 149.5,219.5 Z"/></g>
<g><path style="opacity:1" fill="#aacf8d" d="M 250.5,222.5 C 249.461,224.531 247.795,225.864 245.5,226.5C 246.579,224.457 248.246,223.124 250.5,222.5 Z"/></g>
<g><path style="opacity:1" fill="#d7e8c9" d="M 63.5,226.5 C 65.9893,226.241 67.656,227.241 68.5,229.5C 66.5659,228.89 64.8993,227.89 63.5,226.5 Z"/></g>
<g><path style="opacity:1" fill="#96c371" d="M 135.5,223.5 C 135.245,225.967 134.245,227.967 132.5,229.5C 132.755,227.033 133.755,225.033 135.5,223.5 Z"/></g>
<g><path style="opacity:1" fill="#cfe4c0" d="M 230.5,225.5 C 230.833,225.5 231.167,225.5 231.5,225.5C 230.514,227.408 228.848,228.408 226.5,228.5C 227.436,227.026 228.77,226.026 230.5,225.5 Z"/></g>
<g><path style="opacity:1" fill="#afd294" d="M 245.5,226.5 C 244.599,228.727 242.933,229.727 240.5,229.5C 241.899,228.11 243.566,227.11 245.5,226.5 Z"/></g>
<g><path style="opacity:1" fill="#c5deb2" d="M 269.5,225.5 C 268.92,227.749 267.587,229.415 265.5,230.5C 265.733,228.938 266.4,227.605 267.5,226.5C 268.167,226.167 268.833,225.833 269.5,225.5 Z"/></g>
<g><path style="opacity:1" fill="#daeace" d="M 68.5,229.5 C 71.6393,229.599 73.9726,230.932 75.5,233.5C 72.6689,232.921 70.3356,231.588 68.5,229.5 Z"/></g>
<g><path style="opacity:1" fill="#bcd9a6" d="M 120.5,219.5 C 120.5,226.5 120.5,233.5 120.5,240.5C 119.5,240.5 118.5,240.5 117.5,240.5C 116.209,240.737 115.209,240.404 114.5,239.5C 116.167,239.5 117.833,239.5 119.5,239.5C 119.176,232.646 119.509,225.979 120.5,219.5 Z"/></g>
<g><path style="opacity:1" fill="#b1d397" d="M 240.5,229.5 C 239.738,231.262 238.404,232.262 236.5,232.5C 237.262,230.738 238.596,229.738 240.5,229.5 Z"/></g>
<g><path style="opacity:1" fill="#bfdbaa" d="M 87.5,230.5 C 89.0269,230.427 90.0269,231.094 90.5,232.5C 88.9731,232.573 87.9731,231.906 87.5,230.5 Z"/></g>
<g><path style="opacity:1" fill="#e2efd9" d="M 121.5,218.5 C 121.5,226.167 121.5,233.833 121.5,241.5C 119.901,241.768 118.568,241.434 117.5,240.5C 118.5,240.5 119.5,240.5 120.5,240.5C 120.5,233.5 120.5,226.5 120.5,219.5C 120.5,218.833 120.833,218.5 121.5,218.5 Z"/></g>
<g><path style="opacity:1" fill="#b9d7a1" d="M 172.5,225.5 C 171.101,230.389 168.767,234.722 165.5,238.5C 167.278,233.8 169.612,229.466 172.5,225.5 Z"/></g>
<g><path style="opacity:1" fill="#c7dfb4" d="M 221.5,230.5 C 220.514,232.408 218.848,233.408 216.5,233.5C 217.659,231.75 219.326,230.75 221.5,230.5 Z"/></g>
<g><path style="opacity:1" fill="#b3d49a" d="M 93.5,233.5 C 95.8984,233.259 97.8984,233.926 99.5,235.5C 97.1016,235.741 95.1016,235.074 93.5,233.5 Z"/></g>
<g><path style="opacity:1" fill="#9ec87d" d="M 48.5,234.5 C 50.7488,235.08 52.4154,236.413 53.5,238.5C 51.2512,237.92 49.5846,236.587 48.5,234.5 Z"/></g>
<g><path style="opacity:1" fill="#d1e5c1" d="M 216.5,233.5 C 214.898,235.074 212.898,235.741 210.5,235.5C 212.102,233.926 214.102,233.259 216.5,233.5 Z"/></g>
<g><path style="opacity:1" fill="#abcf8e" d="M 233.5,233.5 C 233.027,234.906 232.027,235.573 230.5,235.5C 230.973,234.094 231.973,233.427 233.5,233.5 Z"/></g>
<g><path style="opacity:1" fill="#bbd8a4" d="M 262.5,233.5 C 262.027,234.906 261.027,235.573 259.5,235.5C 259.973,234.094 260.973,233.427 262.5,233.5 Z"/></g>
<g><path style="opacity:1" fill="#bcd9a5" d="M 100.5,235.5 C 102.403,235.796 104.07,236.463 105.5,237.5C 103.302,237.88 101.635,237.213 100.5,235.5 Z"/></g>
<g><path style="opacity:1" fill="#d5e7c7" d="M 146.5,225.5 C 146.833,225.5 147.167,225.5 147.5,225.5C 147.348,231.699 146.682,237.699 145.5,243.5C 145.5,238.833 145.5,234.167 145.5,229.5C 146.434,228.432 146.768,227.099 146.5,225.5 Z"/></g>
<g><path style="opacity:1" fill="#c1dcad" d="M 259.5,235.5 C 259.19,237.144 258.19,238.144 256.5,238.5C 256.81,236.856 257.81,235.856 259.5,235.5 Z"/></g>
<g><path style="opacity:1" fill="#cde2bc" d="M 81.5,236.5 C 85.1649,236.58 88.4983,237.58 91.5,239.5C 91.5,239.833 91.5,240.167 91.5,240.5C 87.8897,239.689 84.5563,238.356 81.5,236.5 Z"/></g>
<g><path style="opacity:1" fill="#94c26f" d="M 105.5,237.5 C 108.187,237.336 110.854,237.503 113.5,238C 114.056,238.383 114.389,238.883 114.5,239.5C 111.273,239.324 108.273,238.657 105.5,237.5 Z"/></g>
<g><path style="opacity:1" fill="#c1dcad" d="M 206.5,236.5 C 204.898,238.074 202.898,238.741 200.5,238.5C 202.102,236.926 204.102,236.259 206.5,236.5 Z"/></g>
<g><path style="opacity:1" fill="#c0dcaa" d="M 227.5,236.5 C 226.07,237.537 224.403,238.204 222.5,238.5C 223.635,236.787 225.302,236.12 227.5,236.5 Z"/></g>
<g><path style="opacity:1" fill="#b6d59d" d="M 198.5,238.5 C 197.01,240.28 195.01,240.946 192.5,240.5C 190.435,240.517 188.435,240.85 186.5,241.5C 186.611,240.883 186.944,240.383 187.5,240C 191.214,239.68 194.881,239.18 198.5,238.5 Z"/></g>
<g><path style="opacity:1" fill="#c5deb2" d="M 256.5,238.5 C 256.027,239.906 255.027,240.573 253.5,240.5C 253.973,239.094 254.973,238.427 256.5,238.5 Z"/></g>
<g><path style="opacity:1" fill="#a7cd89" d="M 57.5,241.5 C 59.0269,241.427 60.0269,242.094 60.5,243.5C 58.9731,243.573 57.9731,242.906 57.5,241.5 Z"/></g>
<g><path style="opacity:1" fill="#94c26f" d="M 221.5,238.5 C 218.114,242.013 213.781,243.68 208.5,243.5C 208.5,243.167 208.5,242.833 208.5,242.5C 212.945,241.574 217.278,240.241 221.5,238.5 Z"/></g>
<g><path style="opacity:1" fill="#a5cc86" d="M 92.5,240.5 C 95.2718,240.759 97.6051,241.759 99.5,243.5C 96.7282,243.241 94.3949,242.241 92.5,240.5 Z"/></g>
<g><path style="opacity:1" fill="#e4efdb" d="M 91.5,240.5 C 91.5,240.167 91.5,239.833 91.5,239.5C 97.3472,240.188 102.681,241.855 107.5,244.5C 104.873,243.908 102.206,243.575 99.5,243.5C 97.6051,241.759 95.2718,240.759 92.5,240.5C 92.1667,240.5 91.8333,240.5 91.5,240.5 Z"/></g>
<g><path style="opacity:1" fill="#b2d398" d="M 129.5,236.5 C 129.5,238.167 129.5,239.833 129.5,241.5C 131.861,241.674 134.194,242.007 136.5,242.5C 136.5,242.833 136.5,243.167 136.5,243.5C 133.833,243.5 131.167,243.5 128.5,243.5C 128.198,240.941 128.532,238.607 129.5,236.5 Z"/></g>
<g><path style="opacity:1" fill="#9dc77a" d="M 145.5,229.5 C 145.5,234.167 145.5,238.833 145.5,243.5C 142.5,243.5 139.5,243.5 136.5,243.5C 136.5,243.167 136.5,242.833 136.5,242.5C 139.167,242.5 141.833,242.5 144.5,242.5C 144.182,237.968 144.515,233.634 145.5,229.5 Z"/></g>
<g><path style="opacity:1" fill="#a0c97f" d="M 165.5,240.5 C 167.988,242.388 170.988,243.055 174.5,242.5C 174.5,242.833 174.5,243.167 174.5,243.5C 171.167,243.5 167.833,243.5 164.5,243.5C 164.263,242.209 164.596,241.209 165.5,240.5 Z"/></g>
<g><path style="opacity:1" fill="#d8e9cb" d="M 192.5,240.5 C 192.082,241.222 191.416,241.722 190.5,242C 185.192,242.83 179.859,243.33 174.5,243.5C 174.5,243.167 174.5,242.833 174.5,242.5C 178.466,241.838 182.466,241.505 186.5,241.5C 188.435,240.85 190.435,240.517 192.5,240.5 Z"/></g>
<g><path style="opacity:1" fill="#d7e8c9" d="M 208.5,242.5 C 208.5,242.833 208.5,243.167 208.5,243.5C 207.833,243.5 207.167,243.5 206.5,243.5C 205.167,243.833 203.833,244.167 202.5,244.5C 203.918,242.692 205.918,242.025 208.5,242.5 Z"/></g>
<g><path style="opacity:1" fill="#b3d499" d="M 60.5,243.5 C 62.0269,243.427 63.0269,244.094 63.5,245.5C 61.9731,245.573 60.9731,244.906 60.5,243.5 Z"/></g>
<g><path style="opacity:1" fill="#bad8a3" d="M 107.5,244.5 C 110.152,244.41 112.485,245.076 114.5,246.5C 111.848,246.59 109.515,245.924 107.5,244.5 Z"/></g>
<g><path style="opacity:1" fill="#dcebd0" d="M 253.5,240.5 C 251.483,244.397 248.149,246.397 243.5,246.5C 246.765,244.528 250.098,242.528 253.5,240.5 Z"/></g>
<g><path style="opacity:1" fill="#99c575" d="M 63.5,245.5 C 66.8992,245.609 69.5659,246.942 71.5,249.5C 68.5634,248.528 65.8967,247.195 63.5,245.5 Z"/></g>
<g><path style="opacity:1" fill="#d5e7c7" d="M 198.5,244.5 C 195.913,245.749 193.246,246.749 190.5,247.5C 189.167,247.5 187.833,247.5 186.5,247.5C 190.159,245.658 194.159,244.658 198.5,244.5 Z"/></g>
<g><path style="opacity:1" fill="#8abc61" d="M 206.5,243.5 C 204.628,245.062 202.295,246.062 199.5,246.5C 196.572,247.484 193.572,247.817 190.5,247.5C 193.246,246.749 195.913,245.749 198.5,244.5C 199.833,244.5 201.167,244.5 202.5,244.5C 203.833,244.167 205.167,243.833 206.5,243.5 Z"/></g>
<g><path style="opacity:1" fill="#a6cc88" d="M 116.5,246.5 C 121.998,246.952 127.331,247.619 132.5,248.5C 131.167,248.5 129.833,248.5 128.5,248.5C 124.029,249.089 120.029,248.423 116.5,246.5 Z"/></g>
<g><path style="opacity:1" fill="#cce2ba" d="M 186.5,247.5 C 179.7,248.755 172.7,249.422 165.5,249.5C 166.609,248.71 167.942,248.21 169.5,248C 175.157,247.501 180.824,247.334 186.5,247.5 Z"/></g>
<g><path style="opacity:1" fill="#b4d59a" d="M 243.5,246.5 C 241.967,248.245 239.967,249.245 237.5,249.5C 239.033,247.755 241.033,246.755 243.5,246.5 Z"/></g>
<g><path style="opacity:1" fill="#8cbe65" d="M 128.5,248.5 C 129.833,248.5 131.167,248.5 132.5,248.5C 136.97,249.486 141.637,249.819 146.5,249.5C 146.5,249.833 146.5,250.167 146.5,250.5C 141.489,250.666 136.489,250.499 131.5,250C 130.263,249.768 129.263,249.268 128.5,248.5 Z"/></g>
<g><path style="opacity:1" fill="#b1d296" d="M 236.5,249.5 C 236.027,250.906 235.027,251.573 233.5,251.5C 233.5,251.167 233.5,250.833 233.5,250.5C 234.391,249.89 235.391,249.557 236.5,249.5 Z"/></g>
<g><path style="opacity:1" fill="#b2d398" d="M 73.5,250.5 C 74.8734,250.343 76.2068,250.51 77.5,251C 79.4308,251.902 81.0975,253.069 82.5,254.5C 79.0534,253.917 76.0534,252.584 73.5,250.5 Z"/></g>
<g><path style="opacity:1" fill="#bdd9a7" d="M 146.5,249.5 C 148.213,250.635 148.88,252.302 148.5,254.5C 146.896,253.713 146.229,252.38 146.5,250.5C 146.5,250.167 146.5,249.833 146.5,249.5 Z"/></g>
<g><path style="opacity:1" fill="#bfdaaa" d="M 148.5,256.5 C 150.379,257.895 151.379,259.895 151.5,262.5C 149.912,260.887 148.912,258.887 148.5,256.5 Z"/></g>
<g><path style="opacity:1" fill="#acd08f" d="M 162.5,249.5 C 161.54,256.078 161.207,262.745 161.5,269.5C 161.167,269.5 160.833,269.5 160.5,269.5C 159.874,262.416 160.541,255.75 162.5,249.5 Z"/></g>
<g><path style="opacity:1" fill="#91c16b" d="M 233.5,250.5 C 233.5,250.833 233.5,251.167 233.5,251.5C 232.504,251.414 231.671,251.748 231,252.5C 230.113,260.145 229.613,267.811 229.5,275.5C 229.167,275.5 228.833,275.5 228.5,275.5C 228.5,267.167 228.5,258.833 228.5,250.5C 230.167,250.5 231.833,250.5 233.5,250.5 Z"/></g>
<g><path style="opacity:1" fill="#e8f1e0" d="M 233.5,251.5 C 231.903,262.18 230.569,272.847 229.5,283.5C 229.5,280.833 229.5,278.167 229.5,275.5C 229.613,267.811 230.113,260.145 231,252.5C 231.671,251.748 232.504,251.414 233.5,251.5 Z"/></g>
<g><path style="opacity:1" fill="#b4d59b" d="M 87.5,256.5 C 88.2216,256.918 88.7216,257.584 89,258.5C 89.4997,266.493 89.6664,274.493 89.5,282.5C 88.7321,281.737 88.2321,280.737 88,279.5C 87.5003,271.841 87.3336,264.174 87.5,256.5 Z"/></g>
<g><path style="opacity:1" fill="#d7e8ca" d="M 160.5,269.5 C 160.833,269.5 161.167,269.5 161.5,269.5C 162.231,273.207 162.731,276.874 163,280.5C 161.248,278.649 159.748,276.649 158.5,274.5C 160.256,273.448 160.923,271.781 160.5,269.5 Z"/></g>
<g><path style="opacity:1" fill="#acd08f" d="M 228.5,275.5 C 228.833,275.5 229.167,275.5 229.5,275.5C 229.5,278.167 229.5,280.833 229.5,283.5C 229.34,285.153 228.674,286.486 227.5,287.5C 228.162,283.534 228.495,279.534 228.5,275.5 Z"/></g>
<g><path style="opacity:1" fill="#bdd9a6" d="M 227.5,287.5 C 227.262,289.404 226.262,290.738 224.5,291.5C 224.738,289.596 225.738,288.262 227.5,287.5 Z"/></g>
<g><path style="opacity:1" fill="#c7dfb4" d="M 224.5,291.5 C 224.027,292.906 223.027,293.573 221.5,293.5C 221.973,292.094 222.973,291.427 224.5,291.5 Z"/></g>
<g><path style="opacity:1" fill="#d0e4c1" d="M 98.5,294.5 C 138.5,294.5 178.5,294.5 218.5,294.5C 198.845,295.833 178.845,296.5 158.5,296.5C 138.155,296.5 118.155,295.833 98.5,294.5 Z"/></g>
</svg>
